<?xml version="1.0" standalone="no"?>
<!DOCTYPE svg PUBLIC "-//W3C//DTD SVG 20010904//EN"
 "http://www.w3.org/TR/2001/REC-SVG-20010904/DTD/svg10.dtd">
<svg version="1.0" xmlns="http://www.w3.org/2000/svg"
 width="512.000000pt" height="512.000000pt" viewBox="0 0 512.000000 512.000000"
 preserveAspectRatio="xMidYMid meet">
<metadata>
Created by potrace 1.16, written by Peter Selinger 2001-2019
</metadata>
<g transform="translate(0.000000,512.000000) scale(0.100000,-0.100000)"
fill="#000000" stroke="none">
<path d="M144 4146 c-47 -21 -105 -77 -125 -121 -18 -38 -19 -99 -19 -1183 0
-1261 -4 -1180 63 -1251 69 -72 54 -71 610 -71 l497 0 -7 -27 c-3 -16 -12 -48
-18 -73 l-11 -45 -84 -8 c-93 -9 -139 -29 -187 -79 -42 -43 -61 -90 -69 -170
-7 -74 7 -132 36 -148 12 -6 320 -10 853 -10 l834 0 21 23 c19 20 22 34 22
113 0 102 -17 150 -71 201 -47 44 -97 63 -188 70 l-78 6 -12 51 c-6 28 -14 61
-17 73 l-6 22 510 3 510 3 43 30 c24 17 57 50 74 74 l30 43 0 1168 0 1168 -30
43 c-17 24 -50 57 -74 74 l-43 30 -1516 2 c-1253 2 -1522 0 -1548 -11z m3026
-176 c20 -20 20 -33 20 -990 l0 -970 -1510 0 -1510 0 0 970 c0 957 0 970 20
990 20 20 33 20 1490 20 1457 0 1470 0 1490 -20z m-1550 -2150 c-25 -25 -27
-86 -3 -112 16 -17 -7 -18 -695 -18 -699 0 -712 0 -732 20 -15 15 -20 33 -20
75 l0 55 735 0 735 0 -20 -20z m1570 -35 c0 -42 -5 -60 -20 -75 -20 -20 -33
-20 -725 -20 l-706 0 16 31 c20 38 12 83 -18 104 -19 13 57 15 716 15 l737 0
0 -55z m-1170 -307 c6 -24 15 -58 20 -75 l8 -33 -369 0 c-348 0 -370 1 -365
18 3 9 10 37 16 62 6 25 13 51 15 58 3 9 79 12 334 12 l330 0 11 -42z m330
-293 c17 -9 30 -17 30 -19 0 -3 3 -11 6 -20 6 -15 -61 -16 -705 -16 -589 0
-711 2 -711 13 0 15 26 41 50 50 8 3 304 6 658 6 558 1 647 -1 672 -14z"/>
<path d="M3655 4141 c-50 -22 -108 -86 -126 -137 -12 -32 -14 -280 -14 -1444
0 -1547 -4 -1448 64 -1523 72 -80 37 -77 741 -77 698 0 667 -3 737 71 68 72
63 -39 63 1529 0 1568 5 1457 -63 1529 -70 74 -39 71 -737 71 -583 0 -628 -2
-665 -19z m1275 -171 c15 -15 20 -33 20 -75 l0 -55 -635 0 -635 0 0 34 c0 43
16 87 37 104 13 9 150 12 605 12 575 0 588 0 608 -20z m20 -335 l0 -35 -635 0
-635 0 0 35 0 35 635 0 635 0 0 -35z m0 -1330 c0 -1122 0 -1135 -20 -1155 -20
-20 -33 -20 -606 -20 -363 0 -592 4 -604 10 -10 5 -23 24 -29 41 -8 23 -11
358 -11 1145 l0 1114 635 0 635 0 0 -1135z"/>
<path d="M4215 2941 c-85 -39 -137 -124 -137 -221 0 -140 99 -239 240 -240
146 0 242 95 242 240 0 104 -53 187 -142 224 -52 22 -153 20 -203 -3z m155
-171 c11 -11 20 -33 20 -50 0 -17 -9 -39 -20 -50 -11 -11 -33 -20 -50 -20 -17
0 -39 9 -50 20 -11 11 -20 33 -20 50 0 17 9 39 20 50 11 11 33 20 50 20 17 0
39 -9 50 -20z"/>
<path d="M3947 1988 c-50 -39 -36 -126 23 -147 45 -15 655 -15 699 0 17 6 36
19 41 29 17 32 12 88 -10 110 -19 19 -33 20 -378 20 -271 0 -362 -3 -375 -12z"/>
<path d="M3947 1748 c-50 -39 -36 -126 23 -147 45 -15 655 -15 699 0 17 6 36
19 41 29 17 32 12 88 -10 110 -19 19 -33 20 -378 20 -271 0 -362 -3 -375 -12z"/>
<path d="M3947 1508 c-50 -39 -36 -126 23 -147 45 -15 655 -15 699 0 17 6 36
19 41 29 17 32 12 88 -10 110 -19 19 -33 20 -378 20 -271 0 -362 -3 -375 -12z"/>
</g>
</svg>
