<?xml version="1.0" standalone="no"?>
<!DOCTYPE svg PUBLIC "-//W3C//DTD SVG 20010904//EN"
 "http://www.w3.org/TR/2001/REC-SVG-20010904/DTD/svg10.dtd">
<svg version="1.0" xmlns="http://www.w3.org/2000/svg"
 width="512.000000pt" height="512.000000pt" viewBox="0 0 512.000000 512.000000"
 preserveAspectRatio="xMidYMid meet">
<metadata>
Created by potrace 1.16, written by Peter Selinger 2001-2019
</metadata>
<g transform="translate(0.000000,512.000000) scale(0.100000,-0.100000)"
fill="#000000" stroke="none">
<path d="M787 4416 c-66 -27 -117 -64 -145 -103 -71 -102 -617 -983 -628
-1016 -12 -33 -14 -207 -14 -1061 l0 -1021 24 -50 c34 -75 104 -128 184 -141
l40 -6 4 -77 c5 -85 27 -138 79 -189 65 -64 80 -67 339 -70 200 -3 241 -1 278
14 104 39 162 129 162 252 l0 72 1450 0 1450 0 0 -72 c0 -123 58 -213 162
-252 37 -15 78 -17 278 -14 259 3 274 6 339 70 52 51 74 104 79 189 l4 77 40
6 c80 13 150 66 184 141 l24 50 0 1021 c0 856 -2 1028 -14 1062 -8 22 -153
261 -323 532 -334 535 -343 546 -458 589 -56 21 -60 21 -1768 21 l-1712 0 -58
-24z m3492 -175 c20 -11 42 -25 48 -33 6 -7 113 -186 237 -398 l226 -385
-1115 -3 c-613 -1 -1617 -1 -2230 0 l-1115 3 226 385 c124 212 231 391 237
398 6 7 27 22 46 32 35 19 89 19 1719 20 1642 0 1684 0 1721 -19z m620 -1016
c16 -8 31 -22 35 -30 3 -9 6 -451 6 -981 l0 -965 -25 -24 -24 -25 -2331 0
-2331 0 -24 25 -25 24 0 969 c0 1023 -2 985 45 1010 14 8 678 11 2333 12 2011
0 2317 -2 2341 -15z m-3969 -2260 c0 -46 -4 -60 -25 -80 -24 -25 -25 -25 -222
-25 -140 1 -203 4 -214 13 -26 20 -39 53 -39 101 l0 46 250 0 250 0 0 -55z
m3760 9 c0 -48 -13 -81 -39 -101 -11 -9 -74 -12 -214 -13 -197 0 -198 0 -222
25 -21 20 -25 34 -25 80 l0 55 250 0 250 0 0 -46z"/>
<path d="M963 4076 c-40 -34 -39 -98 1 -133 28 -24 33 -24 153 -21 117 3 126
4 144 27 28 34 25 96 -6 126 -23 24 -30 25 -144 25 -112 0 -122 -2 -148 -24z"/>
<path d="M1475 4075 c-31 -30 -34 -92 -6 -126 18 -23 27 -24 144 -27 120 -3
125 -3 153 21 40 35 41 99 1 133 -26 22 -36 24 -148 24 -114 0 -121 -1 -144
-25z"/>
<path d="M2155 4075 c-18 -17 -25 -35 -25 -62 1 -76 34 -93 180 -93 110 0 112
0 141 29 20 20 29 39 29 61 0 22 -9 41 -29 61 -29 29 -30 29 -151 29 -115 0
-122 -1 -145 -25z"/>
<path d="M2669 4071 c-20 -20 -29 -39 -29 -61 0 -22 9 -41 29 -61 29 -29 31
-29 141 -29 146 0 179 17 180 93 0 27 -7 45 -25 62 -23 24 -30 25 -145 25
-121 0 -122 0 -151 -29z"/>
<path d="M3353 4076 c-40 -34 -39 -98 1 -133 28 -24 33 -24 153 -21 117 3 126
4 144 27 28 34 25 96 -6 126 -23 24 -30 25 -144 25 -112 0 -122 -2 -148 -24z"/>
<path d="M3865 4075 c-31 -30 -34 -92 -6 -126 18 -23 27 -24 144 -27 120 -3
125 -3 153 21 40 35 41 99 1 133 -26 22 -36 24 -148 24 -114 0 -121 -1 -144
-25z"/>
<path d="M895 3748 c-52 -30 -62 -102 -20 -143 23 -24 30 -25 145 -25 121 0
122 0 151 29 20 20 29 39 29 61 0 22 -9 41 -29 61 -29 29 -31 29 -143 29 -66
0 -121 -5 -133 -12z"/>
<path d="M1389 3731 c-20 -20 -29 -39 -29 -61 0 -22 9 -41 29 -61 29 -29 30
-29 149 -29 113 0 121 1 146 25 19 18 26 34 26 62 -1 76 -34 93 -180 93 -110
0 -112 0 -141 -29z"/>
<path d="M2175 3748 c-52 -30 -62 -102 -20 -143 23 -24 30 -25 145 -25 121 0
122 0 151 29 20 20 29 39 29 61 0 22 -9 41 -29 61 -29 29 -31 29 -143 29 -66
0 -121 -5 -133 -12z"/>
<path d="M2669 3731 c-20 -20 -29 -39 -29 -61 0 -22 9 -41 29 -61 29 -29 30
-29 149 -29 113 0 121 1 146 25 19 18 26 34 26 62 -1 76 -34 93 -180 93 -110
0 -112 0 -141 -29z"/>
<path d="M3455 3748 c-52 -30 -62 -102 -20 -143 23 -24 30 -25 145 -25 121 0
122 0 151 29 20 20 29 39 29 61 0 22 -9 41 -29 61 -29 29 -31 29 -143 29 -66
0 -121 -5 -133 -12z"/>
<path d="M3949 3731 c-20 -20 -29 -39 -29 -61 0 -22 9 -41 29 -61 29 -29 30
-29 149 -29 113 0 121 1 146 25 19 18 26 34 26 62 -1 76 -34 93 -180 93 -110
0 -112 0 -141 -29z"/>
<path d="M627 3065 c-63 -22 -117 -84 -117 -134 0 -15 -10 -23 -40 -31 -48
-13 -103 -58 -119 -99 -9 -19 -11 -86 -9 -212 3 -174 4 -186 26 -217 13 -18
41 -41 62 -52 36 -19 60 -20 334 -20 184 0 305 4 323 11 38 14 83 57 99 96 10
23 14 79 14 195 0 137 -3 170 -19 204 -22 48 -60 80 -110 94 -31 8 -38 16 -54
59 -20 56 -61 95 -115 111 -53 14 -230 12 -275 -5z m223 -225 c0 -51 4 -65 25
-85 20 -21 34 -25 85 -25 l60 0 0 -125 0 -125 -250 0 -250 0 0 125 0 125 54 0
c30 0 62 3 71 6 25 10 45 59 45 114 l0 50 80 0 80 0 0 -60z"/>
<path d="M1817 3065 c-54 -19 -85 -51 -105 -107 -15 -42 -22 -50 -53 -58 -50
-14 -88 -46 -110 -94 -16 -34 -19 -67 -19 -204 0 -116 4 -172 14 -195 16 -39
61 -82 99 -96 18 -7 139 -11 323 -11 274 0 298 1 334 20 21 11 49 34 62 52 22
31 23 43 26 212 2 99 1 190 -3 203 -10 43 -72 100 -120 112 -35 9 -45 16 -45
32 0 49 -60 118 -119 138 -47 15 -237 13 -284 -4z m223 -216 c0 -89 28 -118
113 -119 l57 0 0 -125 0 -125 -250 0 -250 0 0 125 0 125 60 0 c51 0 65 4 85
25 21 20 25 34 25 85 l0 60 80 0 80 0 0 -51z"/>
<path d="M3015 3068 c-56 -20 -115 -90 -115 -137 0 -16 -10 -23 -45 -32 -48
-12 -110 -69 -120 -112 -4 -13 -5 -104 -3 -203 3 -169 4 -181 26 -212 13 -18
41 -41 62 -52 36 -19 60 -20 334 -20 183 0 305 4 323 11 42 15 92 68 103 109
5 19 10 105 10 190 0 129 -4 162 -19 196 -22 48 -60 80 -110 94 -31 8 -38 16
-54 59 -20 56 -61 95 -115 111 -47 13 -238 12 -277 -2z m225 -228 c0 -85 25
-110 110 -110 l60 0 0 -125 0 -125 -250 0 -250 0 0 125 0 125 59 0 c54 0 62 3
85 31 21 25 26 41 26 85 l0 54 80 0 80 0 0 -60z"/>
<path d="M4207 3065 c-54 -19 -85 -51 -105 -107 -15 -42 -22 -50 -53 -58 -50
-14 -88 -46 -110 -94 -16 -34 -19 -67 -19 -204 0 -116 4 -172 14 -195 16 -39
61 -82 99 -96 18 -7 139 -11 323 -11 274 0 298 1 334 20 21 11 49 34 62 52 22
31 23 43 26 217 2 126 0 193 -9 212 -16 41 -71 86 -119 99 -30 8 -40 16 -40
31 0 52 -63 121 -128 139 -53 14 -230 12 -275 -5z m223 -215 c0 -55 20 -104
45 -114 9 -3 41 -6 71 -6 l54 0 0 -125 0 -125 -250 0 -250 0 0 125 0 125 60 0
c85 0 110 25 110 110 l0 60 80 0 80 0 0 -50z"/>
<path d="M459 2130 c-43 -13 -74 -38 -97 -79 -20 -36 -22 -52 -22 -215 0 -156
2 -181 20 -215 21 -42 69 -77 119 -87 23 -5 31 -12 31 -28 0 -39 43 -99 89
-123 39 -20 58 -23 168 -23 82 0 135 5 157 14 42 17 92 79 100 122 6 28 12 34
41 40 47 8 112 67 126 112 7 23 9 102 7 208 -3 170 -3 171 -32 208 -55 72 -74
76 -396 75 -157 0 -297 -4 -311 -9z m561 -295 l0 -125 -60 0 c-51 0 -65 -4
-85 -25 -21 -20 -25 -34 -25 -85 l0 -60 -80 0 -80 0 0 56 c0 48 -4 59 -29 85
-26 25 -37 29 -85 29 l-56 0 0 125 0 125 250 0 250 0 0 -125z"/>
<path d="M1635 2121 c-89 -41 -105 -85 -105 -288 0 -132 3 -165 19 -199 22
-47 59 -80 110 -95 31 -9 39 -18 56 -62 13 -32 34 -62 58 -81 39 -31 40 -31
175 -34 129 -3 140 -2 182 21 47 24 90 83 90 123 0 16 8 23 32 28 48 10 103
50 121 89 14 29 17 68 17 211 0 202 -9 235 -77 277 -37 24 -43 24 -338 27
-275 2 -303 1 -340 -17z m575 -286 l0 -125 -54 0 c-80 0 -108 -27 -114 -108
l-4 -62 -79 0 -79 0 0 60 c0 51 -4 65 -25 85 -20 21 -34 25 -85 25 l-60 0 0
125 0 125 250 0 250 0 0 -125z"/>
<path d="M2848 2130 c-43 -13 -84 -47 -102 -84 -24 -50 -23 -372 1 -423 18
-39 73 -79 120 -89 27 -5 32 -11 37 -45 8 -48 61 -104 114 -120 24 -7 88 -10
164 -8 124 4 127 5 165 35 24 19 45 49 58 81 17 44 25 53 56 62 51 15 88 48
110 95 16 34 19 67 19 201 0 206 -17 250 -113 290 -30 12 -86 15 -319 14 -156
0 -295 -4 -310 -9z m562 -295 l0 -125 -60 0 c-51 0 -65 -4 -85 -25 -21 -20
-25 -34 -25 -85 l0 -60 -79 0 -79 0 -4 62 c-6 81 -34 108 -114 108 l-54 0 0
125 0 125 250 0 250 0 0 -125z"/>
<path d="M4024 2121 c-23 -10 -54 -36 -70 -57 -29 -37 -29 -37 -32 -208 -2
-105 1 -185 7 -208 14 -45 79 -104 126 -112 29 -6 35 -12 41 -40 8 -43 58
-105 100 -122 22 -9 75 -14 157 -14 110 0 129 3 168 23 46 24 89 84 89 123 0
16 8 23 31 28 50 10 98 45 119 87 18 34 20 59 20 215 0 163 -2 179 -22 216
-12 21 -38 49 -58 61 -34 21 -46 22 -335 25 -277 2 -303 1 -341 -17z m576
-286 l0 -125 -56 0 c-48 0 -59 -4 -85 -29 -25 -26 -29 -37 -29 -85 l0 -56 -80
0 -80 0 0 60 c0 85 -25 110 -110 110 l-60 0 0 125 0 125 250 0 250 0 0 -125z"/>
</g>
</svg>
