<?xml version="1.0" standalone="no"?>
<!DOCTYPE svg PUBLIC "-//W3C//DTD SVG 20010904//EN"
 "http://www.w3.org/TR/2001/REC-SVG-20010904/DTD/svg10.dtd">
<svg version="1.0" xmlns="http://www.w3.org/2000/svg"
 width="512.000000pt" height="512.000000pt" viewBox="0 0 512.000000 512.000000"
 preserveAspectRatio="xMidYMid meet">
<metadata>
Created by potrace 1.16, written by Peter Selinger 2001-2019
</metadata>
<g transform="translate(0.000000,512.000000) scale(0.100000,-0.100000)"
fill="#000000" stroke="none">
<path d="M3130 4963 l-985 -155 -340 -7 -340 -6 -293 -189 c-161 -103 -296
-193 -300 -200 -4 -6 -9 -491 -12 -1078 l-5 -1068 -380 205 c-209 112 -391
205 -405 205 -14 0 -36 -7 -48 -16 -22 -15 -22 -18 -22 -260 l0 -244 29 -18
c15 -9 209 -114 429 -232 l402 -215 0 -128 0 -128 -33 17 c-17 9 -190 102
-383 205 -194 104 -363 189 -376 189 -13 0 -34 -7 -46 -16 -22 -15 -22 -18
-22 -260 l0 -244 29 -18 c15 -9 209 -114 429 -232 l402 -215 0 -407 c0 -395 1
-409 20 -428 20 -20 33 -20 1680 -20 1647 0 1660 0 1680 20 19 19 20 33 20
415 l0 395 413 0 c388 0 415 1 430 18 15 16 17 46 17 214 0 176 -2 196 -18
211 -17 15 -61 17 -430 17 l-412 0 0 185 0 185 413 0 c388 0 415 1 430 18 15
16 17 46 17 214 0 176 -2 196 -18 211 -17 15 -61 17 -430 17 l-412 0 0 995 c0
982 0 995 -20 1015 -20 20 -33 20 -1065 20 l-1045 0 0 74 0 74 48 7 c26 4 497
76 1047 160 911 140 1002 156 1018 176 15 19 17 46 17 230 0 196 -1 210 -20
229 -15 15 -32 20 -72 19 -29 -1 -496 -71 -1038 -156z m980 -106 l0 -103 -967
-148 c-533 -81 -978 -150 -990 -153 -23 -5 -23 -4 -23 100 l0 105 143 22 c78
12 513 79 967 150 454 70 835 128 848 129 21 1 22 -2 22 -102z m-2130 -457 l0
-250 -485 0 -486 0 3 86 3 86 254 164 255 164 228 0 228 0 0 -250z m2130
-1080 l0 -690 -1550 0 -1550 0 0 690 0 690 1550 0 1550 0 0 -690z m0 -1175 l0
-345 -1550 0 -1550 0 0 345 0 345 1550 0 1550 0 0 -345z m-3502 75 l252 -135
0 -113 0 -114 -87 47 c-49 25 -211 112 -360 193 l-273 146 0 113 0 114 108
-58 c60 -32 222 -119 360 -193z m4372 -330 l0 -90 -360 0 -360 0 0 90 0 90
360 0 360 0 0 -90z m-870 -575 l0 -345 -380 0 -380 0 0 118 c0 102 -3 123 -24
167 -28 60 -56 87 -116 114 -44 20 -63 21 -650 21 l-605 0 -50 -24 c-104 -49
-134 -112 -135 -278 l0 -118 -380 0 -380 0 0 345 0 345 1550 0 1550 0 0 -345z
m-3502 75 l252 -135 0 -113 c0 -62 -3 -111 -7 -109 -5 2 -167 89 -360 192
l-353 189 0 113 0 114 108 -58 c60 -32 222 -119 360 -193z m2563 -179 c28 -29
29 -32 29 -135 l0 -106 -640 0 -640 0 0 106 c0 103 1 106 29 135 l29 29 582 0
582 0 29 -29z m1809 -151 l0 -90 -360 0 -360 0 0 90 0 90 360 0 360 0 0 -90z
m-870 -575 l0 -345 -380 0 -380 0 0 118 c0 102 -3 123 -24 167 -28 60 -56 87
-116 114 -44 20 -63 21 -650 21 l-605 0 -50 -24 c-104 -49 -134 -112 -135
-278 l0 -118 -380 0 -380 0 0 345 0 345 1550 0 1550 0 0 -345z m-939 -104 c28
-29 29 -32 29 -135 l0 -106 -640 0 -640 0 0 106 c0 103 1 106 29 135 l29 29
582 0 582 0 29 -29z"/>
<path d="M1200 3810 c-19 -19 -20 -33 -20 -490 0 -457 1 -471 20 -490 19 -19
33 -20 508 -20 461 0 490 1 505 18 15 17 17 66 17 494 0 447 -1 476 -18 491
-17 15 -66 17 -505 17 -474 0 -488 -1 -507 -20z m880 -490 l0 -370 -375 0
-375 0 0 370 0 370 375 0 375 0 0 -370z"/>
<path d="M2424 3809 c-16 -18 -20 -40 -22 -156 -7 -247 -10 -243 217 -243 155
0 170 2 195 21 l26 20 0 173 c0 155 -2 175 -18 189 -16 15 -45 17 -199 17
-170 0 -181 -1 -199 -21z m266 -184 l0 -65 -70 0 -70 0 0 65 0 65 70 0 70 0 0
-65z"/>
<path d="M2970 3803 c-20 -26 -21 -36 -18 -191 4 -215 -10 -202 218 -202 154
0 169 2 194 21 l26 20 0 168 c0 135 -3 171 -16 189 -15 21 -20 22 -199 22
l-184 0 -21 -27z m270 -178 l0 -65 -70 0 -70 0 0 65 0 65 70 0 70 0 0 -65z"/>
<path d="M3534 3822 c-28 -18 -34 -56 -34 -207 0 -152 1 -156 25 -180 24 -25
27 -25 195 -25 168 0 171 0 195 25 25 24 25 27 25 190 0 220 16 205 -217 205
-98 0 -183 -4 -189 -8z m256 -197 l0 -65 -70 0 -70 0 0 65 0 65 70 0 70 0 0
-65z"/>
<path d="M2430 3210 c-18 -18 -20 -33 -20 -193 0 -156 2 -176 18 -190 16 -15
45 -17 200 -17 229 0 212 -17 212 211 l0 168 -26 20 c-25 19 -40 21 -195 21
-156 0 -171 -2 -189 -20z m260 -195 l0 -65 -70 0 -70 0 0 65 0 65 70 0 70 0 0
-65z"/>
<path d="M2979 3211 c-23 -19 -24 -25 -27 -183 -3 -155 -2 -165 18 -191 l21
-27 184 0 c179 0 184 1 199 22 13 18 16 54 16 189 l0 168 -26 20 c-25 19 -40
21 -194 21 -150 0 -170 -2 -191 -19z m261 -196 l0 -65 -70 0 -70 0 0 65 0 65
70 0 70 0 0 -65z"/>
<path d="M3525 3205 c-24 -24 -25 -28 -25 -180 0 -151 6 -189 34 -207 6 -4 91
-8 189 -8 233 0 217 -15 217 205 0 163 0 166 -25 190 -24 25 -27 25 -195 25
-168 0 -171 0 -195 -25z m265 -190 l0 -65 -70 0 -70 0 0 65 0 65 70 0 70 0 0
-65z"/>
</g>
</svg>
